name GIL03_xfast2EmgEnv.mot
datacolumns 51
datarows 10
range 0.56481481 0.57314813
endheader
                time	   rect_fem_l_emgRec	   rect_fem_l_emgEnv	   rect_fem_l_emgAve	   rect_fem_l_emgSDp	   rect_fem_l_emgSDm	   rect_fem_r_emgRec	   rect_fem_r_emgEnv	   rect_fem_r_emgAve	   rect_fem_r_emgSDp	   rect_fem_r_emgSDm	   med_hams_l_emgRec	   med_hams_l_emgEnv	   med_hams_l_emgAve	   med_hams_l_emgSDp	   med_hams_l_emgSDm	   med_hams_r_emgRec	   med_hams_r_emgEnv	   med_hams_r_emgAve	   med_hams_r_emgSDp	   med_hams_r_emgSDm	   lat_hams_l_emgRec	   lat_hams_l_emgEnv	   lat_hams_l_emgAve	   lat_hams_l_emgSDp	   lat_hams_l_emgSDm	   lat_hams_r_emgRec	   lat_hams_r_emgEnv	   lat_hams_r_emgAve	   lat_hams_r_emgSDp	   lat_hams_r_emgSDm	    tib_ant_l_emgRec	    tib_ant_l_emgEnv	    tib_ant_l_emgAve	    tib_ant_l_emgSDp	    tib_ant_l_emgSDm	    tib_ant_r_emgRec	    tib_ant_r_emgEnv	    tib_ant_r_emgAve	    tib_ant_r_emgSDp	    tib_ant_r_emgSDm	    gas_sol_l_emgRec	    gas_sol_l_emgEnv	    gas_sol_l_emgAve	    gas_sol_l_emgSDp	    gas_sol_l_emgSDm	    gas_sol_r_emgRec	    gas_sol_r_emgEnv	    gas_sol_r_emgAve	    gas_sol_r_emgSDp	    gas_sol_r_emgSDm	
          0.56481481	          0.05651214	          0.07640346	          0.10070163	          0.15363652	          0.04776674	          0.02981700	          0.34467984	          0.21312858	          0.38783464	          0.03842252	          0.02960914	          0.30125151	          0.31955272	          0.54754715	          0.09155829	          0.01903407	          0.03950092	          0.15150277	          0.25012143	          0.05288412	          0.03647501	          0.32590713	          0.30230385	          0.35940238	          0.24520532	          0.00995554	          0.08365224	          0.29003677	          0.49565952	          0.08441402	          0.00680582	          0.06332864	          0.08065385	          0.13204882	          0.02925889	          0.07207339	          0.20094701	          0.32307544	          0.39865381	          0.24749708	          0.12353778	          0.13498187	          0.04950592	          0.10418183	         -0.00517000	          0.25445711	          0.55792754	          0.60448426	          0.68841414	          0.52055438	
          0.56574076	          0.04226311	          0.07508631	          0.10026791	          0.15457969	          0.04595613	          0.07854725	          0.33862008	          0.21366027	          0.38742475	          0.03989579	          0.09275631	          0.30664479	          0.32228714	          0.54912677	          0.09544751	          0.01423397	          0.03898852	          0.15119047	          0.24896140	          0.05341955	          0.02360798	          0.33506886	          0.30865192	          0.36684355	          0.25046030	          0.00334945	          0.08103384	          0.28826103	          0.49322073	          0.08330132	          0.00321249	          0.06228757	          0.08078588	          0.13236197	          0.02920979	          0.07333223	          0.20319626	          0.32482091	          0.40021749	          0.24942432	          0.14232436	          0.13603585	          0.05075048	          0.10495714	         -0.00345618	          0.10962704	          0.55971215	          0.60910219	          0.69285528	          0.52534910	
          0.56666666	          0.03570386	          0.07383036	          0.10003788	          0.15589312	          0.04418264	          0.14922241	          0.33257333	          0.21412008	          0.38687445	          0.04136570	          0.08651003	          0.31201836	          0.32496563	          0.55053352	          0.09939773	          0.01281668	          0.03854254	          0.15086994	          0.24779774	          0.05394213	          0.06804887	          0.34431811	          0.31502569	          0.37432472	          0.25572665	          0.02060283	          0.07849985	          0.28642231	          0.49065597	          0.08218865	          0.01712650	          0.06154226	          0.08102260	          0.13287640	          0.02916879	          0.05868041	          0.20549497	          0.32646033	          0.40165700	          0.25126366	          0.13269874	          0.13700050	          0.05203053	          0.10573893	         -0.00167787	          0.01478125	          0.56161081	          0.61369199	          0.69726808	          0.53011589	
          0.56759262	          0.03546287	          0.07263629	          0.10000809	          0.15756962	          0.04244656	          0.17299525	          0.32655372	          0.21450756	          0.38618349	          0.04283164	          0.06253156	          0.31736885	          0.32758838	          0.55176979	          0.10340697	          0.01260991	          0.03816402	          0.15054081	          0.24663007	          0.05445156	          0.18389308	          0.35364842	          0.32142347	          0.38184338	          0.26100356	          0.04486692	          0.07605125	          0.28452078	          0.48796558	          0.08107597	          0.02954610	          0.06109204	          0.08136285	          0.13358924	          0.02913646	          0.03881071	          0.20783749	          0.32799277	          0.40297123	          0.25301430	          0.11299321	          0.13787479	          0.05334547	          0.10652723	          0.00016372	          0.21348309	          0.56362605	          0.61825258	          0.70165171	          0.53485344	
          0.56851852	          0.04793516	          0.07150482	          0.10017502	          0.15960110	          0.04074893	          0.08545265	          0.32057500	          0.21482208	          0.38535175	          0.04429242	          0.00446218	          0.32269290	          0.33015540	          0.55283844	          0.10747236	          0.00750948	          0.03785390	          0.15020277	          0.24545819	          0.05494734	          0.03473247	          0.36305314	          0.32784203	          0.38939510	          0.26628896	          0.03642955	          0.07368885	          0.28255725	          0.48515067	          0.07996383	          0.03312066	          0.06093570	          0.08180535	          0.13449719	          0.02911351	          0.03553000	          0.21021810	          0.32941690	          0.40415876	          0.25467504	          0.01232363	          0.13865800	          0.05469435	          0.10732193	          0.00206677	          0.16367066	          0.56576022	          0.62278193	          0.70600440	          0.53955946	
          0.56944448	          0.05670442	          0.07043677	          0.10053471	          0.16197921	          0.03909022	          0.02814499	          0.31465053	          0.21506327	          0.38437909	          0.04574746	          0.03342273	          0.32798711	          0.33266723	          0.55374262	          0.11159185	          0.00052347	          0.03761301	          0.14985555	          0.24428183	          0.05542928	          0.19628852	          0.37252547	          0.33427981	          0.39697733	          0.27158228	          0.01178263	          0.07141338	          0.28053194	          0.48221172	          0.07885216	          0.03040471	          0.06107149	          0.08234886	          0.13559692	          0.02910080	          0.04773863	          0.21263098	          0.33073190	          0.40521863	          0.25624517	          0.10071666	          0.13934975	          0.05607649	          0.10812315	          0.00402984	          0.00957414	          0.56801545	          0.62727922	          0.71032553	          0.54423291	
          0.57037038	          0.05303982	          0.06943302	          0.10108303	          0.16469453	          0.03747153	          0.05821209	          0.30879320	          0.21523081	          0.38326591	          0.04719570	          0.01279555	          0.33324809	          0.33512384	          0.55448547	          0.11576220	          0.00511285	          0.03744204	          0.14949891	          0.24310087	          0.05589695	          0.28729946	          0.38205846	          0.34073350	          0.40458548	          0.27688152	          0.00912436	          0.06922539	          0.27844578	          0.47915025	          0.07774131	          0.03319646	          0.06149714	          0.08299198	          0.13688457	          0.02909939	          0.02364293	          0.21507026	          0.33193690	          0.40614992	          0.25772387	          0.08437602	          0.13994998	          0.05749082	          0.10893075	          0.00605089	          0.10528885	          0.57039369	          0.63174188	          0.71461277	          0.54887099	
          0.57129627	          0.04438561	          0.06849448	          0.10181551	          0.16773734	          0.03589369	          0.05972714	          0.30301540	          0.21532437	          0.38201232	          0.04863642	          0.04522255	          0.33847248	          0.33752581	          0.55507080	          0.11998083	          0.01480754	          0.03734157	          0.14913261	          0.24191506	          0.05635016	          0.21510164	          0.39164500	          0.34720102	          0.41221631	          0.28218573	          0.02163462	          0.06712533	          0.27629921	          0.47596696	          0.07663146	          0.03782905	          0.06220987	          0.08373337	          0.13835621	          0.02911053	          0.03789999	          0.21752998	          0.33303112	          0.40695181	          0.25911043	          0.06567748	          0.14045897	          0.05893651	          0.10974484	          0.00812818	          0.14969409	          0.57289669	          0.63616872	          0.71886518	          0.55347226	
          0.57222223	          0.02752749	          0.06762212	          0.10272754	          0.17109744	          0.03435764	          0.01699674	          0.29732899	          0.21534389	          0.38061886	          0.05006893	          0.05526922	          0.34365692	          0.33987385	          0.55550261	          0.12424509	          0.02719978	          0.03731206	          0.14875634	          0.24072412	          0.05678856	          0.04570585	          0.40127781	          0.35368031	          0.41986655	          0.28749408	          0.02854431	          0.06511350	          0.27409273	          0.47266281	          0.07552266	          0.03534889	          0.06320637	          0.08457167	          0.14000775	          0.02913560	          0.07401963	          0.22000418	          0.33401415	          0.40762386	          0.26040443	          0.14978818	          0.14087734	          0.06041268	          0.11056549	          0.01025986	          0.21229088	          0.57552598	          0.64055866	          0.72308189	          0.55803543	
          0.57314813	          0.00659529	          0.06681693	          0.10381404	          0.17476342	          0.03286465	          0.08752054	          0.29174523	          0.21528921	          0.37908617	          0.05149224	          0.02493911	          0.34879810	          0.34216821	          0.55578491	          0.12855151	          0.02159661	          0.03735384	          0.14836994	          0.23952798	          0.05721190	          0.22501422	          0.41094946	          0.36016813	          0.42753147	          0.29280479	          0.03114620	          0.06319010	          0.27182758	          0.46923974	          0.07441542	          0.03219094	          0.06448288	          0.08550530	          0.14183443	          0.02917616	          0.03851746	          0.22248683	          0.33488518	          0.40816534	          0.26160502	          0.20664157	          0.14120605	          0.06191811	          0.11139265	          0.01244357	          0.04578090	          0.57828292	          0.64490891	          0.72726033	          0.56255748	
